<svg id="design" xmlns="http://www.w3.org/2000/svg" viewBox="0 0 256 256"><defs><style>.cls-1{fill:#b388ff;}.cls-2,.cls-4,.cls-6,.cls-7,.cls-8{fill:none;}.cls-2{stroke:#7041d6;}.cls-2,.cls-4,.cls-6,.cls-7{stroke-linecap:round;stroke-linejoin:round;stroke-width:4px;}.cls-3{fill:#fff;}.cls-4{stroke:#b388ff;}.cls-5{fill:#fc8aff;}.cls-6{stroke:#fff;}.cls-7{stroke:#fc8aff;}</style></defs><title>12-checkins</title><path class="cls-1" d="M189,114c0,33.69-61,87-61,87s-61-53.31-61-87a61,61,0,0,1,122,0Z"/><path class="cls-2" d="M189,114c0,33.69-61,87-61,87s-61-53.31-61-87a61,61,0,0,1,122,0Z"/><circle class="cls-3" cx="128" cy="114" r="41"/><circle class="cls-2" cx="128" cy="114" r="41"/><path class="cls-4" d="M155.65,100A30.79,30.79,0,0,1,159,114"/><path class="cls-4" d="M128,83a30.91,30.91,0,0,1,21.91,9.09"/><circle class="cls-5" cx="128" cy="114" r="20"/><circle class="cls-2" cx="128" cy="114" r="20"/><polyline class="cls-6" points="121 116 125.05 120 135 110"/><circle class="cls-2" cx="48.5" cy="106.5" r="4.5"/><circle class="cls-1" cx="199.5" cy="58.5" r="4.5"/><circle class="cls-1" cx="66.5" cy="58.5" r="4.5"/><circle class="cls-2" cx="199.5" cy="198.5" r="4.5"/><circle class="cls-2" cx="204.5" cy="113.5" r="4.5"/><circle class="cls-1" cx="78.5" cy="177.5" r="4.5"/><circle class="cls-5" cx="193.5" cy="155.5" r="4.5"/><circle class="cls-7" cx="55.5" cy="200.5" r="4.5"/><rect class="cls-8" width="256" height="256"/></svg>